<svg xmlns="http://www.w3.org/2000/svg" viewBox="0 -3.1 40 67.2" shape-rendering="crispEdges">
  <defs><style>line, polyline, circle, rect { stroke-linecap: square }</style></defs>
  <rect x="2" y="7" width="16" height="16" rx="1" fill="#eeeef4" stroke="#4a4a6a" stroke-width="1.0"/>
  <rect x="2" y="35" width="16" height="16" rx="1" fill="#eeeef4" stroke="#4a4a6a" stroke-width="1.0"/>
  <rect x="22" y="35" width="16" height="16" rx="1" fill="#eeeef4" stroke="#4a4a6a" stroke-width="1.0"/>
  <circle cx="10" cy="29" r="2" stroke="#4a4a6a" stroke-width="1.0"/>
  <circle cx="30" cy="29" r="2" stroke="#4a4a6a" stroke-width="1.0"/>
  <polygon points="8,3 10,0 12,3" fill="#4a4a6a"/>
  <line x1="10" y1="2" x2="10.0" y2="7" stroke="#4a4a6a" stroke-width="1.0"/>
  <line x1="10.0" y1="23" x2="10" y2="27" stroke="#4a4a6a" stroke-width="1.0"/>
  <line x1="10" y1="31" x2="10.0" y2="35" stroke="#4a4a6a" stroke-width="1.0"/>
  <line x1="10.0" y1="51" x2="10" y2="61" stroke="#4a4a6a" stroke-width="1.0"/>
  <line x1="30" y1="31" x2="30.0" y2="35" stroke="#4a4a6a" stroke-width="1.0"/>
  <line x1="12" y1="29" x2="28" y2="29" stroke="#4a4a6a" stroke-width="1.0"/>
  <polyline points="10,57 30,57 30,51" fill="none" stroke="#4a4a6a" stroke-width="1.0"/>
  <polyline points="28,29 30,29 31.4142,27.5858" fill="none" stroke="#4a4a6a" stroke-width="1.0"/>
  <circle cx="10" cy="29" r="0.2" fill="#4a4a6a" stroke="#4a4a6a" stroke-width="0"/>
  <rect x="8.0" y="-2.6" width="4.0" height="1.6" rx="0.4" fill="#f0d8a0"/>
  <rect x="4.0" y="62" width="8.64" height="1.6" rx="0.4" fill="#b8ccee"/>
  <rect x="13.18" y="62" width="2.64" height="1.6" rx="0.4" fill="#b8e0b0"/>
  <rect x="5.5" y="32.2" width="9" height="1.6" rx="0.4" fill="#b8ccee"/>
  <rect x="25.68" y="32.2" width="2.64" height="1.6" rx="0.4" fill="#b8e0b0"/>
  <rect x="28.68" y="32.2" width="2.64" height="1.6" rx="0.4" fill="#b8e0b0"/>
  <rect x="31.68" y="32.2" width="2.64" height="1.6" rx="0.4" fill="#b8e0b0"/>
  <rect x="5.5" y="24.2" width="9" height="1.6" rx="0.4" fill="#f0d8a0"/>
  <text x="10.0" y="16.274" text-anchor="middle" font-family="Helvetica, Arial, sans-serif" font-size="3.64" fill="#4a4a6a" font-weight="bold">W</text><text x="11.638" y="17.548" text-anchor="start" font-family="Helvetica, Arial, sans-serif" font-size="2.366" fill="#4a4a6a" font-weight="bold">o</text>
  <text x="10.0" y="44.274" text-anchor="middle" font-family="Helvetica, Arial, sans-serif" font-size="3.64" fill="#4a4a6a" font-weight="bold">W</text><text x="11.638" y="45.548" text-anchor="start" font-family="Helvetica, Arial, sans-serif" font-size="2.366" fill="#4a4a6a" font-weight="bold">v</text>
  <text x="30.0" y="44.274" text-anchor="middle" font-family="Helvetica, Arial, sans-serif" font-size="3.64" fill="#4a4a6a" font-weight="bold">W</text><text x="31.638" y="45.548" text-anchor="start" font-family="Helvetica, Arial, sans-serif" font-size="2.366" fill="#4a4a6a" font-weight="bold">g</text>
</svg>