<svg xmlns="http://www.w3.org/2000/svg" viewBox="0 0 40 81">
<defs><style>line,polyline,circle,.w{ stroke:#4a4a6a; stroke-width:1 }
polygon{fill: #4a4a6a}.w{ fill:#eeeef4 }
polyline,circle{ fill:none }</style></defs>

    <rect class="w" x="2" y="5" width="16" height="16" rx="1"/>
    <rect class="w" x="2" y="33" width="16" height="16" rx="1"/>
    <rect class="w" x="22" y="33" width="16" height="16" rx="1"/>
    <rect class="w" x="2" y="61" width="16" height="16" rx="1"/>
    <circle cx="10" cy="27" r="2"/>
    <circle cx="30" cy="27" r="2"/>
    <polygon points="9,2 10,0 11,2"/>
    <line x1="10" y1="1" x2="10" y2="5"/>
    <line x1="10" y1="21" x2="10" y2="25"/>
    <line x1="10" y1="29" x2="10" y2="33"/>
    <line x1="10" y1="49" x2="10" y2="55"/>
    <line x1="10" y1="55" x2="10" y2="61"/>
    <line x1="10" y1="77" x2="10" y2="81"/>
    <line x1="30" y1="29" x2="30" y2="33"/>
    <line x1="12" y1="27" x2="28" y2="27"/>
    <polyline points="10,55 30,55 30,49"/>
    <polyline points="28,27 30,27 31.414213562373096,25.585786437626904"/>
    <circle cx="10" cy="27" r="0.2"/>
    <rect x="4.0" y="78.45" width="8.4" height="1.6" rx="0.4" fill="#b8ccee"/>
    <rect x="13.3" y="78.45" width="2.4" height="1.6" rx="0.4" fill="#b8e0b0"/>
    <rect x="5.5" y="30.2" width="9.0" height="1.6" rx="0.4" fill="#b8ccee"/>
    <rect x="25.8" y="30.2" width="2.4" height="1.6" rx="0.4" fill="#b8e0b0"/>
    <rect x="28.8" y="30.2" width="2.4" height="1.6" rx="0.4" fill="#b8e0b0"/>
    <rect x="31.8" y="30.2" width="2.4" height="1.6" rx="0.4" fill="#b8e0b0"/>
    <rect x="5.5" y="22.2" width="9.0" height="1.6" rx="0.4" fill="#f0d8a0"/>
    <rect x="7.2" y="2.45" width="5.6" height="1.6" rx="0.4" fill="#f0d8a0"/>
    <text x="10" y="13.98" text-anchor="middle" font-family="Latin Modern Roman, CMU Serif, serif" font-size="2.8" fill="#4a4a6a">W</text><text x="11.26" y="14.96" text-anchor="start" font-family="Latin Modern Roman, CMU Serif, serif" font-size="1.82" fill="#4a4a6a">o</text>
    <text x="10" y="41.98" text-anchor="middle" font-family="Latin Modern Roman, CMU Serif, serif" font-size="2.8" fill="#4a4a6a">W</text><text x="11.26" y="42.96" text-anchor="start" font-family="Latin Modern Roman, CMU Serif, serif" font-size="1.82" fill="#4a4a6a">v</text>
    <text x="30" y="41.98" text-anchor="middle" font-family="Latin Modern Roman, CMU Serif, serif" font-size="2.8" fill="#4a4a6a">W</text><text x="31.26" y="42.96" text-anchor="start" font-family="Latin Modern Roman, CMU Serif, serif" font-size="1.82" fill="#4a4a6a">g</text>
    <text x="10" y="69.98" text-anchor="middle" font-family="Latin Modern Roman, CMU Serif, serif" font-size="2.8" fill="#4a4a6a">Norm</text>
</svg>