<svg xmlns="http://www.w3.org/2000/svg" viewBox="0 0 40 64">
<defs><style>line,polyline,circle,.w{ stroke:#4a4a6a; stroke-width:1 }
polygon{fill: #4a4a6a}.w{ fill:#eeeef4 }
polyline,circle{ fill:none }</style></defs>

    <rect class="w" x="2" y="8" width="16" height="16" rx="1"/>
    <rect class="w" x="2" y="36" width="16" height="16" rx="1"/>
    <rect class="w" x="22" y="36" width="16" height="16" rx="1"/>
    <circle cx="10" cy="30" r="2"/>
    <circle cx="30" cy="30" r="2"/>
    <polygon points="8,2 10,0 12,2"/>
    <line x1="10" y1="1" x2="10" y2="8"/>
    <line x1="10" y1="24" x2="10" y2="28"/>
    <line x1="10" y1="32" x2="10" y2="36"/>
    <line x1="10" y1="52" x2="10" y2="58"/>
    <line x1="10" y1="58" x2="10" y2="64"/>
    <line x1="30" y1="32" x2="30" y2="36"/>
    <line x1="12" y1="30" x2="28" y2="30"/>
    <polyline points="10,58 30,58 30,52"/>
    <polyline points="28,30 30,30 31.414213562373096,28.585786437626904"/>
    <circle cx="10" cy="30" r="0.2" fill="#4a4a6a"/>
    <rect x="4.0" y="60.2" width="8.64" height="1.6" rx="0.4" fill="#b8ccee"/>
    <rect x="13.18" y="60.2" width="2.64" height="1.6" rx="0.4" fill="#b8e0b0"/>
    <rect x="5.5" y="33.2" width="9.0" height="1.6" rx="0.4" fill="#b8ccee"/>
    <rect x="25.68" y="33.2" width="2.64" height="1.6" rx="0.4" fill="#b8e0b0"/>
    <rect x="28.68" y="33.2" width="2.64" height="1.6" rx="0.4" fill="#b8e0b0"/>
    <rect x="31.68" y="33.2" width="2.64" height="1.6" rx="0.4" fill="#b8e0b0"/>
    <rect x="5.5" y="25.2" width="9.0" height="1.6" rx="0.4" fill="#f0d8a0"/>
    <rect x="8.0" y="3.95" width="4.0" height="1.6" rx="0.4" fill="#f0d8a0"/>
    <text x="10" y="17.27" text-anchor="middle" font-family="Helvetica, Arial, sans-serif" font-weight="bold" font-size="3.64" fill="#4a4a6a">W</text><text x="11.64" y="18.55" text-anchor="start" font-family="Helvetica, Arial, sans-serif" font-weight="bold" font-size="2.37" fill="#4a4a6a">o</text>
    <text x="10" y="45.27" text-anchor="middle" font-family="Helvetica, Arial, sans-serif" font-weight="bold" font-size="3.64" fill="#4a4a6a">W</text><text x="11.64" y="46.55" text-anchor="start" font-family="Helvetica, Arial, sans-serif" font-weight="bold" font-size="2.37" fill="#4a4a6a">v</text>
    <text x="30" y="45.27" text-anchor="middle" font-family="Helvetica, Arial, sans-serif" font-weight="bold" font-size="3.64" fill="#4a4a6a">W</text><text x="31.64" y="46.55" text-anchor="start" font-family="Helvetica, Arial, sans-serif" font-weight="bold" font-size="2.37" fill="#4a4a6a">g</text>
</svg>