<svg xmlns="http://www.w3.org/2000/svg" shape-rendering="crispEdges" viewBox="0 -3.1 40 65.2">
<defs><style>line,polyline,circle,.w{ stroke:#4a4a6a; stroke-width:1 }
polygon{fill: #4a4a6a}.w{ fill:#eeeef4 }
polyline,circle{ fill:none }</style></defs>

    <rect class="w" x="2" y="6" width="16" height="16" rx="1"/>
    <rect class="w" x="2" y="34" width="16" height="16" rx="1"/>
    <rect class="w" x="22" y="34" width="16" height="16" rx="1"/>
    <circle cx="10" cy="28" r="2"/>
    <circle cx="30" cy="28" r="2"/>
    <polygon points="8,3 10,0 12,3"/>
    <line x1="10" y1="2" x2="10" y2="6"/>
    <line x1="10" y1="22" x2="10" y2="26"/>
    <line x1="10" y1="30" x2="10" y2="34"/>
    <line x1="10" y1="50" x2="10" y2="56"/>
    <line x1="10" y1="56" x2="10" y2="59"/>
    <line x1="30" y1="30" x2="30" y2="34"/>
    <line x1="12" y1="28" x2="28" y2="28"/>
    <polyline points="10,56 30,56 30,50"/>
    <polyline points="28,28 30,28 31.414213562373096,26.585786437626904"/>
    <circle cx="10" cy="28" r="0.2" fill="#4a4a6a"/>
    <rect x="4.0" y="60.0" width="8.64" height="1.6" rx="0.4" fill="#b8ccee"/>
    <rect x="13.18" y="60.0" width="2.64" height="1.6" rx="0.4" fill="#b8e0b0"/>
    <rect x="5.5" y="31.2" width="9.0" height="1.6" rx="0.4" fill="#b8ccee"/>
    <rect x="25.68" y="31.2" width="2.64" height="1.6" rx="0.4" fill="#b8e0b0"/>
    <rect x="28.68" y="31.2" width="2.64" height="1.6" rx="0.4" fill="#b8e0b0"/>
    <rect x="31.68" y="31.2" width="2.64" height="1.6" rx="0.4" fill="#b8e0b0"/>
    <rect x="5.5" y="23.2" width="9.0" height="1.6" rx="0.4" fill="#f0d8a0"/>
    <rect x="8.0" y="-2.6" width="4.0" height="1.6" rx="0.4" fill="#f0d8a0"/>
    <text x="10" y="15.27" text-anchor="middle" font-family="Helvetica, Arial, sans-serif" font-weight="bold" font-size="3.64" fill="#4a4a6a">W</text><text x="11.64" y="16.55" text-anchor="start" font-family="Helvetica, Arial, sans-serif" font-weight="bold" font-size="2.37" fill="#4a4a6a">o</text>
    <text x="10" y="43.27" text-anchor="middle" font-family="Helvetica, Arial, sans-serif" font-weight="bold" font-size="3.64" fill="#4a4a6a">W</text><text x="11.64" y="44.55" text-anchor="start" font-family="Helvetica, Arial, sans-serif" font-weight="bold" font-size="2.37" fill="#4a4a6a">v</text>
    <text x="30" y="43.27" text-anchor="middle" font-family="Helvetica, Arial, sans-serif" font-weight="bold" font-size="3.64" fill="#4a4a6a">W</text><text x="31.64" y="44.55" text-anchor="start" font-family="Helvetica, Arial, sans-serif" font-weight="bold" font-size="2.37" fill="#4a4a6a">g</text>
</svg>