<svg xmlns="http://www.w3.org/2000/svg" viewBox="0 0 40 81">
<defs><style>line,polyline,circle,.w{ stroke:oklch(0.35 0.05 235); stroke-width:1 }
polygon{fill: oklch(0.35 0.05 235)}.w{ fill:oklch(0.6 0 235 / 4%) }
polyline,circle{ fill:none }</style></defs>

    <rect class="w" x="2" y="5" width="16" height="16" rx="1"/>
    <rect class="w" x="2" y="33" width="16" height="16" rx="1"/>
    <rect class="w" x="22" y="33" width="16" height="16" rx="1"/>
    <rect class="w" x="2" y="61" width="16" height="16" rx="1"/>
    <circle cx="10" cy="27" r="2"/>
    <circle cx="30" cy="27" r="2"/>
    <polygon points="9,2 10,0 11,2"/>
    <line x1="10" y1="1" x2="10" y2="5"/>
    <line x1="10" y1="21" x2="10" y2="25"/>
    <line x1="10" y1="29" x2="10" y2="33"/>
    <line x1="10" y1="49" x2="10" y2="55"/>
    <line x1="10" y1="55" x2="10" y2="61"/>
    <line x1="10" y1="77" x2="10" y2="81"/>
    <line x1="30" y1="29" x2="30" y2="33"/>
    <line x1="12" y1="27" x2="28" y2="27"/>
    <polyline points="10,55 30,55 30,49"/>
    <polyline points="28,27 30,27 31.414213562373096,25.585786437626904"/>
    <circle cx="10" cy="27" r="0.2"/>
    <rect x="4.0" y="78.45" width="8.4" height="1.6" rx="0.4" fill="#b8ccee"/>
    <rect x="13.0" y="78.45" width="3.0" height="1.6" rx="0.4" fill="#b8e0b0"/>
    <rect x="5.5" y="30.2" width="9.0" height="1.6" rx="0.4" fill="#b8ccee"/>
    <rect x="25.5" y="30.2" width="2.4" height="1.6" rx="0.4" fill="#b8e0b0"/>
    <rect x="28.5" y="30.2" width="2.4" height="1.6" rx="0.4" fill="#b8e0b0"/>
    <rect x="31.5" y="30.2" width="2.4" height="1.6" rx="0.4" fill="#b8e0b0"/>
    <rect x="5.5" y="22.2" width="9.0" height="1.6" rx="0.4" fill="#f0d8a0"/>
    <rect x="7.2" y="2.45" width="5.6" height="1.6" rx="0.4" fill="#f0d8a0"/>
    <text x="10" y="13" text-anchor="middle" dominant-baseline="central" font-family="Latin Modern Roman, CMU Serif, serif" font-size="2.8" fill="oklch(0.35 0.05 235)">W<tspan font-size="1.82" dy="0.7">o</tspan></text>
    <text x="10" y="41" text-anchor="middle" dominant-baseline="central" font-family="Latin Modern Roman, CMU Serif, serif" font-size="2.8" fill="oklch(0.35 0.05 235)">W<tspan font-size="1.82" dy="0.7">v</tspan></text>
    <text x="30" y="41" text-anchor="middle" dominant-baseline="central" font-family="Latin Modern Roman, CMU Serif, serif" font-size="2.8" fill="oklch(0.35 0.05 235)">W<tspan font-size="1.82" dy="0.7">g</tspan></text>
    <text x="10" y="69" text-anchor="middle" dominant-baseline="central" font-family="Latin Modern Roman, CMU Serif, serif" font-size="2.8" fill="oklch(0.35 0.05 235)">Norm</text>
</svg>