<svg xmlns="http://www.w3.org/2000/svg" viewBox="0 -0.1 40 67.2" shape-rendering="crispEdges">
  <defs><style>*{stroke-linecap:square}</style></defs>
  <rect x="2" y="10" width="16" height="16" rx="1" fill="#eeeef4" stroke="#4a4a6a" stroke-width="1"/>
  <rect x="2" y="38" width="16" height="16" rx="1" fill="#eeeef4" stroke="#4a4a6a" stroke-width="1"/>
  <rect x="22" y="38" width="16" height="16" rx="1" fill="#eeeef4" stroke="#4a4a6a" stroke-width="1"/>
  <circle cx="10" cy="32" r="2" fill="none" stroke="#4a4a6a" stroke-width="1"/>
  <circle cx="30" cy="32" r="2" fill="none" stroke="#4a4a6a" stroke-width="1"/>
  <polygon points="8,6 10,3 12,6" fill="#4a4a6a"/>
  <line x1="10" y1="5" x2="10" y2="10" stroke="#4a4a6a" stroke-width="1"/>
  <line x1="10" y1="26" x2="10" y2="30" stroke="#4a4a6a" stroke-width="1"/>
  <line x1="10" y1="34" x2="10" y2="38" stroke="#4a4a6a" stroke-width="1"/>
  <line x1="10" y1="54" x2="10" y2="64" stroke="#4a4a6a" stroke-width="1"/>
  <line x1="30" y1="34" x2="30" y2="38" stroke="#4a4a6a" stroke-width="1"/>
  <line x1="12" y1="32" x2="28" y2="32" stroke="#4a4a6a" stroke-width="1"/>
  <polyline points="10,60 30,60 30,54" fill="none" stroke="#4a4a6a" stroke-width="1"/>
  <polyline points="28,32 30,32 31.41,30.59" fill="none" stroke="#4a4a6a" stroke-width="1"/>
  <circle cx="10" cy="32" r="0.2" fill="#4a4a6a" stroke="none"/>
  <rect x="8" y="0" width="4" height="2" fill="#f0d8a0" stroke="none"/>
  <rect x="4" y="65" width="8" height="2" fill="#b8ccee" stroke="none"/>
  <rect x="13" y="65" width="3" height="2" fill="#b8e0b0" stroke="none"/>
  <rect x="6" y="35" width="8" height="2" fill="#b8ccee" stroke="none"/>
  <rect x="26" y="35" width="2" height="2" fill="#b8e0b0" stroke="none"/>
  <rect x="29" y="35" width="2" height="2" fill="#b8e0b0" stroke="none"/>
  <rect x="32" y="35" width="2" height="2" fill="#b8e0b0" stroke="none"/>
  <rect x="6" y="27" width="8" height="2" fill="#f0d8a0" stroke="none"/>
  <text x="10" y="19.4" text-anchor="middle" font-family="Helvetica, Arial, sans-serif" font-size="4" fill="#4a4a6a" font-weight="bold">W</text><text x="11.8" y="20.8" text-anchor="start" font-family="Helvetica, Arial, sans-serif" font-size="2.6" fill="#4a4a6a" font-weight="bold">o</text>
  <text x="10" y="47.4" text-anchor="middle" font-family="Helvetica, Arial, sans-serif" font-size="4" fill="#4a4a6a" font-weight="bold">W</text><text x="11.8" y="48.8" text-anchor="start" font-family="Helvetica, Arial, sans-serif" font-size="2.6" fill="#4a4a6a" font-weight="bold">v</text>
  <text x="30" y="47.4" text-anchor="middle" font-family="Helvetica, Arial, sans-serif" font-size="4" fill="#4a4a6a" font-weight="bold">W</text><text x="31.8" y="48.8" text-anchor="start" font-family="Helvetica, Arial, sans-serif" font-size="2.6" fill="#4a4a6a" font-weight="bold">g</text>
</svg>