<svg xmlns="http://www.w3.org/2000/svg" viewBox="0 0 40 87">
<defs><style>line,polyline,circle,.w{ stroke:oklch(0.35 0.05 235); stroke-width:1 }
polygon{fill: oklch(0.35 0.05 235)}.w{ fill:oklch(0.6 0 235 / 4%) }
polyline,circle{ fill:none }</style></defs>

    <rect class="w" x="2" y="8" width="16" height="16" rx="1"/>
    <rect class="w" x="2" y="36" width="16" height="16" rx="1"/>
    <rect class="w" x="22" y="36" width="16" height="16" rx="1"/>
    <rect class="w" x="2" y="64" width="16" height="16" rx="1"/>
    <circle cx="10" cy="30" r="2"/>
    <circle cx="30" cy="30" r="2"/>
    <polygon points="9,5 10,3 11,5"/>
    <line x1="10" y1="0" x2="10" y2="8"/>
    <line x1="10" y1="24" x2="10" y2="28"/>
    <line x1="10" y1="32" x2="10" y2="36"/>
    <line x1="10" y1="52" x2="10" y2="58"/>
    <line x1="10" y1="58" x2="10" y2="64"/>
    <line x1="10" y1="80" x2="10" y2="87"/>
    <line x1="30" y1="32" x2="30" y2="36"/>
    <line x1="12" y1="30" x2="28" y2="30"/>
    <polyline points="10,58 30,58 30,52"/>
    <polyline points="28,30 30,30 31.414213562373096,28.585786437626904"/>
    <circle cx="10" cy="30" r="0.2"/>
    <rect x="4.0" y="84.7" width="9.0" height="1.6" rx="0.4" fill="#b8ccee" stroke="oklch(0.35 0.05 235)" stroke-width="0.3"/>
    <rect x="13.0" y="84.7" width="3.0" height="1.6" rx="0.4" fill="#b8e0b0" stroke="oklch(0.35 0.05 235)" stroke-width="0.3"/>
    <rect x="4.0" y="84.7" width="12" height="1.6" rx="0.4" fill="none" stroke="oklch(0.35 0.05 235)" stroke-width="0.3"/>
    <rect x="6.0" y="33.2" width="8.0" height="1.6" rx="0.4" fill="#b8ccee" stroke="oklch(0.35 0.05 235)" stroke-width="0.3"/>
    <rect x="26.0" y="33.2" width="8.0" height="1.6" rx="0.4" fill="#b8e0b0" stroke="oklch(0.35 0.05 235)" stroke-width="0.3"/>
    <rect x="5.6" y="25.2" width="8.8" height="1.6" rx="0.4" fill="#f0d8a0" stroke="oklch(0.35 0.05 235)" stroke-width="0.3"/>
    <rect x="7.2" y="0.7" width="5.6" height="1.6" rx="0.4" fill="#f0d8a0" stroke="oklch(0.35 0.05 235)" stroke-width="0.3"/>
    <text x="10" y="16" text-anchor="middle" dominant-baseline="central" font-family="Latin Modern Roman, CMU Serif, serif" font-size="2.8" fill="oklch(0.35 0.05 235)">W<tspan font-size="1.82" dy="0.7">o</tspan></text>
    <text x="10" y="44" text-anchor="middle" dominant-baseline="central" font-family="Latin Modern Roman, CMU Serif, serif" font-size="2.8" fill="oklch(0.35 0.05 235)">W<tspan font-size="1.82" dy="0.7">v</tspan></text>
    <text x="30" y="44" text-anchor="middle" dominant-baseline="central" font-family="Latin Modern Roman, CMU Serif, serif" font-size="2.8" fill="oklch(0.35 0.05 235)">W<tspan font-size="1.82" dy="0.7">g</tspan></text>
    <text x="10" y="72" text-anchor="middle" dominant-baseline="central" font-family="Latin Modern Roman, CMU Serif, serif" font-size="2.8" fill="oklch(0.35 0.05 235)">Norm</text>
</svg>