<svg xmlns="http://www.w3.org/2000/svg" viewBox="0 0 152 48">
    <rect x="4" y="4" width="38" height="40" rx="3" fill="#e8e0f0" stroke="#8070a0" stroke-width="0.8" stroke-dasharray="3,2"/>
    <rect x="52" y="4" width="48" height="40" rx="3" fill="#eeeef4" stroke="#a0a0b0" stroke-width="0.8" stroke-dasharray="3,2"/>
    <rect x="110" y="4" width="38" height="40" rx="3" fill="#f8e8e8" stroke="#c09090" stroke-width="0.8" stroke-dasharray="3,2"/>
    <rect x="8" y="18.0" width="12" height="12" rx="1.5" fill="#4a4a6a" stroke="#4a4a6a" stroke-width="0.8"/>
    <rect x="26" y="18.0" width="12" height="12" rx="1.5" fill="#f0d8a0" stroke="#4a4a6a" stroke-width="0.8"/>
    <line x1="21" y1="24.0" x2="25" y2="24.0" stroke="#4a4a6a" stroke-width="0.8"/>
    <polygon points="22.3,22.5 25,24.0 22.3,25.5" fill="#4a4a6a"/>
    <line x1="42" y1="24.0" x2="52" y2="24.0" stroke="#4a4a6a" stroke-width="0.8"/>
    <polygon points="49.3,22.5 52,24.0 49.3,25.5" fill="#4a4a6a"/>
    <rect x="56" y="8" width="40" height="32" rx="2" fill="#b8ccee" stroke="#4a4a6a" stroke-width="0.8"/>
    <rect x="62" y="14" width="28" height="20" rx="1.5" fill="#f0d8a0" stroke="#4a4a6a" stroke-width="0.8"/>
    <polyline points="100,24.0 105.0,24.0 105.0,14.0 110,14.0" fill="none" stroke="#c06060" stroke-width="0.8"/>
    <polygon points="107.3,12.5 110,14.0 107.3,15.5" fill="#c06060"/>
    <polyline points="100,24.0 105.0,24.0 105.0,34.0 110,34.0" fill="none" stroke="#609060" stroke-width="0.8"/>
    <polygon points="107.3,32.5 110,34.0 107.3,35.5" fill="#609060"/>
    <circle cx="105.0" cy="24.0" r="0.6" fill="#4a4a6a"/>
    <rect x="125.0" y="9.0" width="10" height="10" rx="1.5" fill="#f0c0c0" stroke="#c06060" stroke-width="0.8"/>
    <rect x="125.0" y="29.0" width="10" height="10" rx="1.5" fill="#b8e0b0" stroke="#609060" stroke-width="0.8"/>
</svg>