<svg xmlns="http://www.w3.org/2000/svg" viewBox="0 0 110 48">
    <rect x="4" y="4" width="20" height="40" rx="3" fill="#eeeef4"/>
    <rect x="34" y="4" width="44" height="40" rx="3" fill="#eeeef4"/>
    <rect x="88" y="4" width="18" height="40" rx="3" fill="#eeeef4"/>
    <rect x="8" y="18.0" width="12" height="12" rx="1.5" fill="#4a4a6a" stroke="#4a4a6a" stroke-width="0.8"/>
    <rect x="38" y="8" width="36" height="32" rx="2" fill="#b8ccee" stroke="#4a4a6a" stroke-width="0.8"/>
    <rect x="43" y="13" width="26" height="22" rx="1.5" fill="#f0d8a0" stroke="#4a4a6a" stroke-width="0.8"/>
    <rect x="92" y="9.0" width="10" height="10" rx="1.5" fill="#f0c0c0" stroke="#c06060" stroke-width="0.8"/>
    <rect x="92" y="29.0" width="10" height="10" rx="1.5" fill="#b8e0b0" stroke="#609060" stroke-width="0.8"/>
    <line x1="20" y1="24.0" x2="43" y2="24.0" stroke="#4a4a6a" stroke-width="0.8"/>
    <polygon points="40.3,22.5 43,24.0 40.3,25.5" fill="#4a4a6a"/>
    <polyline points="69,24.0 82.5,24.0 82.5,14.0 92,14.0" fill="none" stroke="#c06060" stroke-width="0.8"/>
    <polygon points="89.3,12.5 92,14.0 89.3,15.5" fill="#c06060"/>
    <polyline points="74,34.0 83.5,34.0 92,34.0" fill="none" stroke="#609060" stroke-width="0.8"/>
    <polygon points="89.3,32.5 92,34.0 89.3,35.5" fill="#609060"/>
</svg>