<svg xmlns="http://www.w3.org/2000/svg" viewBox="0 0 84 98">
    <rect x="4" y="12" width="76" height="74" rx="5" fill="#f0d8a0" stroke="#4a4a6a" stroke-width="0.8"/>
    <rect x="9" y="17" width="66" height="64" rx="4" fill="#eeeef4" stroke="#4a4a6a" stroke-width="0.8"/>
    <rect x="14" y="22" width="14" height="14" rx="2" fill="#f0c0c0" stroke="#4a4a6a" stroke-width="0.8"/>
    <rect x="34" y="22" width="14" height="14" rx="2" fill="#f0c0c0" stroke="#4a4a6a" stroke-width="0.8"/>
    <rect x="14" y="42" width="14" height="14" rx="2" fill="#f0c0c0" stroke="#4a4a6a" stroke-width="0.8"/>
    <rect x="34" y="42" width="14" height="14" rx="2" fill="#f0c0c0" stroke="#4a4a6a" stroke-width="0.8"/>
    <rect x="14" y="62" width="14" height="14" rx="2" fill="#f0c0c0" stroke="#4a4a6a" stroke-width="0.8"/>
    <rect x="34" y="62" width="14" height="14" rx="2" fill="#f0c0c0" stroke="#4a4a6a" stroke-width="0.8"/>
    <rect x="56" y="22" width="14" height="54" rx="3" fill="#b8ccee" stroke="#4a4a6a" stroke-width="0.8"/>
    <line x1="23.1" y1="36" x2="37.5" y2="41.47" stroke="#c06060" stroke-width="0.8"/>
    <polygon points="35.84,42.44 38.9,42 36.91,39.64" fill="#c06060"/>
    <line x1="23.1" y1="56" x2="37.5" y2="61.47" stroke="#c06060" stroke-width="0.8"/>
    <polygon points="35.84,62.44 38.9,62 36.91,59.64" fill="#c06060"/>
    <line x1="41.0" y1="6.7" x2="41.0" y2="22" stroke="#4a4a6a" stroke-width="0.8"/>
    <polygon points="39.5,6.7 41.0,4 42.5,6.7" fill="#4a4a6a"/>
    <line x1="41.0" y1="36" x2="41.0" y2="42" stroke="#4a4a6a" stroke-width="0.8"/>
    <line x1="41.0" y1="56" x2="41.0" y2="62" stroke="#4a4a6a" stroke-width="0.8"/>
    <line x1="41.0" y1="76" x2="41.0" y2="94" stroke="#4a4a6a" stroke-width="0.8"/>
    <polygon points="39.5,78.7 41.0,76 42.5,78.7" fill="#4a4a6a"/>
    <polyline points="41.0,14.5 63.0,14.5 63.0,22" fill="none" stroke="#4a4a6a" stroke-width="0.8"/>
    <polyline points="63.0,76 63.0,83.5 41.0,83.5" fill="none" stroke="#4a4a6a" stroke-width="0.8"/>
    <text x="21.0" y="30.12" text-anchor="middle" font-family="Latin Modern Roman, CMU Serif, serif" font-size="3.2" fill="#4a4a6a">Locker</text>
    <text x="41.0" y="30.12" text-anchor="middle" font-family="Latin Modern Roman, CMU Serif, serif" font-size="3.2" fill="#4a4a6a">Exec</text>
    <text x="21.0" y="50.12" text-anchor="middle" font-family="Latin Modern Roman, CMU Serif, serif" font-size="3.2" fill="#4a4a6a">Locker</text>
    <text x="41.0" y="50.12" text-anchor="middle" font-family="Latin Modern Roman, CMU Serif, serif" font-size="3.2" fill="#4a4a6a">Exec</text>
    <text x="21.0" y="70.12" text-anchor="middle" font-family="Latin Modern Roman, CMU Serif, serif" font-size="3.2" fill="#4a4a6a">Locker</text>
    <text x="41.0" y="70.12" text-anchor="middle" font-family="Latin Modern Roman, CMU Serif, serif" font-size="3.2" fill="#4a4a6a">Exec</text>
    <text x="63.0" y="50.12" text-anchor="middle" font-family="Latin Modern Roman, CMU Serif, serif" font-size="3.2" fill="#4a4a6a">LLM</text>
</svg>