<svg xmlns="http://www.w3.org/2000/svg" viewBox="0 0 84 98">
    <rect x="4" y="12" width="76" height="74" rx="5" fill="#eeeef4"/>
    <rect x="14" y="42" width="14" height="14" rx="2" fill="#f0c0c0" stroke="#4a4a6a" stroke-width="0.8"/>
    <rect x="14" y="62" width="14" height="14" rx="2" fill="#f0c0c0" stroke="#4a4a6a" stroke-width="0.8"/>
    <rect x="34" y="22" width="14" height="14" rx="2" fill="#f0d8a0" stroke="#4a4a6a" stroke-width="0.8"/>
    <rect x="34" y="42" width="14" height="14" rx="2" fill="#f0d8a0" stroke="#4a4a6a" stroke-width="0.8"/>
    <rect x="56" y="22" width="14" height="54" rx="3" fill="#b8ccee" stroke="#4a4a6a" stroke-width="0.8"/>
    <line x1="28" y1="62" x2="32.94" y2="57.06" stroke="#4a4a6a" stroke-width="0.8"/>
    <polygon points="33.15,58.97 34,56 31.03,56.85" fill="#4a4a6a"/>
    <line x1="28" y1="42" x2="32.94" y2="37.06" stroke="#4a4a6a" stroke-width="0.8"/>
    <polygon points="33.15,38.97 34,36 31.03,36.85" fill="#4a4a6a"/>
    <line x1="21.0" y1="56" x2="21.0" y2="62" stroke="#4a4a6a" stroke-width="0.8"/>
    <line x1="41.0" y1="6.7" x2="41.0" y2="22" stroke="#4a4a6a" stroke-width="0.8"/>
    <polygon points="39.5,6.7 41.0,4 42.5,6.7" fill="#4a4a6a"/>
    <line x1="41.0" y1="36" x2="41.0" y2="42" stroke="#4a4a6a" stroke-width="0.8"/>
    <line x1="41.0" y1="56" x2="41.0" y2="94" stroke="#4a4a6a" stroke-width="0.8"/>
    <polygon points="39.5,58.7 41.0,56 42.5,58.7" fill="#4a4a6a"/>
    <polyline points="41.0,14.5 63.0,14.5 63.0,22" fill="none" stroke="#4a4a6a" stroke-width="0.8"/>
    <polyline points="63.0,76 63.0,83.5 21.0,83.5 21.0,76" fill="none" stroke="#4a4a6a" stroke-width="0.8"/>
    <text x="21.0" y="50.12" text-anchor="middle" font-family="Latin Modern Roman, CMU Serif, serif" font-size="3.2" fill="#4a4a6a">Locker</text>
    <text x="21.0" y="70.12" text-anchor="middle" font-family="Latin Modern Roman, CMU Serif, serif" font-size="3.2" fill="#4a4a6a">Locker</text>
    <text x="41.0" y="30.12" text-anchor="middle" font-family="Latin Modern Roman, CMU Serif, serif" font-size="3.2" fill="#4a4a6a">Exec</text>
    <text x="41.0" y="50.12" text-anchor="middle" font-family="Latin Modern Roman, CMU Serif, serif" font-size="3.2" fill="#4a4a6a">Exec</text>
    <text x="63.0" y="50.12" text-anchor="middle" font-family="Latin Modern Roman, CMU Serif, serif" font-size="3.2" fill="#4a4a6a">LLM</text>
</svg>