<svg xmlns="http://www.w3.org/2000/svg" viewBox="-8 -8 40 91">
  <defs><style>line,polyline,circle,rect,path{stroke:#4a4a6a;stroke-width:0.8;fill:none}
polygon{fill:#4a4a6a}</style></defs>
  <rect x="0" y="0" width="24" height="10" rx="2" fill="#b8e0b0"/>
  <text x="12" y="5.98" text-anchor="middle" font-family="Latin Modern Roman, CMU Serif, serif" font-size="2.8" fill="#4a4a6a">Add</text>
  <rect x="0" y="13" width="24" height="10" rx="2" fill="#f0d8a0"/>
  <text x="12" y="18.98" text-anchor="middle" font-family="Latin Modern Roman, CMU Serif, serif" font-size="2.8" fill="#4a4a6a">FFN</text>
  <rect x="0" y="26" width="24" height="10" rx="2" fill="#eeeef4"/>
  <text x="12" y="31.98" text-anchor="middle" font-family="Latin Modern Roman, CMU Serif, serif" font-size="2.8" fill="#4a4a6a">Norm</text>
  <rect x="0" y="39" width="24" height="10" rx="2" fill="#b8e0b0"/>
  <text x="12" y="44.98" text-anchor="middle" font-family="Latin Modern Roman, CMU Serif, serif" font-size="2.8" fill="#4a4a6a">Add</text>
  <rect x="0" y="52" width="24" height="10" rx="2" fill="#b8ccee"/>
  <text x="12" y="57.98" text-anchor="middle" font-family="Latin Modern Roman, CMU Serif, serif" font-size="2.8" fill="#4a4a6a">Attention</text>
  <rect x="0" y="65" width="24" height="10" rx="2" fill="#eeeef4"/>
  <text x="12" y="70.98" text-anchor="middle" font-family="Latin Modern Roman, CMU Serif, serif" font-size="2.8" fill="#4a4a6a">Norm</text>
  <line x1="12" y1="65" x2="12" y2="62"/>
  <line x1="12" y1="52" x2="12" y2="49"/>
  <line x1="12" y1="39" x2="12" y2="36"/>
  <line x1="12" y1="26" x2="12" y2="23"/>
  <line x1="12" y1="13" x2="12" y2="10"/>
  <line x1="12" y1="75" x2="12" y2="80"/>
  <line x1="12" y1="-5" x2="12" y2="-0.75"/>
  <polygon points="10.5,-2.7 12,0 13.5,-2.7"/>
  <polyline points="24,75 29,75 29,44 24,44"/>
  <polyline points="24,36 29,36 29,5 24,5"/>
  <text x="-5" y="38.48" text-anchor="middle" font-family="Latin Modern Roman, CMU Serif, serif" font-size="2.8" fill="#4a4a6a">×N</text>
  <line x1="-2.5" y1="0" x2="-2.5" y2="75" stroke-width="0.5"/>
  <line x1="-2.5" y1="0" x2="-1.5" y2="0" stroke-width="0.5"/>
  <line x1="-2.5" y1="75" x2="-1.5" y2="75" stroke-width="0.5"/>
</svg>